<?xml version="1.0"?>
<svg version="1.1" xmlns="http://www.w3.org/2000/svg" width="310px" height="50px" style=""><path fill="#e60707" d="M73.49,30.4l-1.035-4.32s-2.115-0.72-5.04-0.72c-4.725,0-7.425,3.51-7.425,11.025c0,7.29,2.925,10.35,7.65,10.35c4.5,0,8.55-3.15,8.55-3.15l2.475,4.05s-4.725,4.905-11.79,4.905c-9.135,0-14.4-5.49-14.4-15.93c0-10.575,5.94-16.875,15.165-16.875c5.445,0,10.485,2.115,10.485,2.115l-0.225,8.55l-4.41,0z M88.31795,46.825l0-21.15l-3.375-1.35l0-3.825l10.35-0.225l4.275,0c9,0,14.31,5.31,14.31,15.435s-5.85,16.29-14.985,16.29l-13.95,0l0-3.825z M95.29295,46.6l3.735,0c4.365,0,7.29-2.565,7.29-10.665c0-7.56-2.565-10.26-6.975-10.26l-4.05,0l0,20.925z M120.8309,52l0-3.825l3.375-1.35l0-21.15l-3.375-1.35l0-3.825l11.61-0.225l6.75,14.985l7.065-14.76l10.8-0.225l0,4.05l-3.24,1.35l0,21.15l3.375,1.35l0,3.825l-13.41,0l0-3.825l3.51-1.35l0-16.92l-1.215,2.97l-5.085,10.575l-4.86,0.225l-5.175-10.665l-0.765-2.34l0,16.155l3.465,1.35l0,3.825l-12.825,0z"/><path fill="#" d=""/></svg>
