<?xml version="1.0"?>
<svg version="1.1" xmlns="http://www.w3.org/2000/svg" width="400px" height="50px" style=""><path fill="#f70707" d="M50.595703125,31.884765625q0-2.119140625,0.1904296875-4.2431640625t0.7958984375-4.1845703125q0.17578125-0.615234375,0.458984375-1.2158203125t0.693359375-1.0693359375t0.9765625-0.76171875t1.34765625-0.29296875l0.205078125,0.01953125q0.83984375,0.1171875,1.240234375,0.6787109375t0.400390625,1.4013671875q0,0.224609375-0.0537109375,0.5615234375t-0.1708984375,0.6494140625t-0.3173828125,0.5322265625t-0.5029296875,0.2197265625q-0.13671875-0.01953125-0.2490234375-0.048828125t-0.2099609375-0.126953125q0.15625-0.341796875,0.2783203125-0.712890625t0.1220703125-0.849609375q0-0.17578125-0.029296875-0.44921875t-0.1123046875-0.5419921875t-0.2197265625-0.46875t-0.380859375-0.2001953125q-0.615234375,0-1.03515625,0.6884765625t-0.703125,1.7578125t-0.419921875,2.36328125t-0.2099609375,2.5t-0.0830078125,2.177734375t-0.009765625,1.3720703125q0,0.46875-0.009765625,1.03515625l0,0.126953125q0.009765625,0.498046875,0.068359375,0.947265625q0.078125,0.5078125,0.302734375,0.87890625t0.703125,0.4296875q0.146484375,0.01953125,0.283203125,0.01953125q0.56640625,0,1.025390625-0.322265625q0.56640625-0.400390625,1.005859375-1.0400390625t0.78125-1.40625t0.6298828125-1.4501953125t0.5615234375-1.1328125t0.56640625-0.44921875q0.09765625,0,0.29296875,0.0390625t0.1953125,0.185546875q0,0.0390625-0.01953125,0.107421875t-0.048828125,0.107421875q-0.263671875,1.03515625-0.6689453125,2.1484375t-1.03515625,2.0263671875t-1.54296875,1.4892578125t-2.1923828125,0.576171875q-0.91796875,0-1.4892578125-0.3466796875t-0.87890625-0.927734375t-0.419921875-1.3134765625t-0.1123046875-1.484375z M60.96357421875,23.2568359375q-0.01953125-0.2587890625,0.0439453125-0.48828125t0.2392578125-0.380859375t0.595703125-0.1513671875q0.09765625,0,0.2392578125,0.01953125t0.283203125,0.0634765625t0.2294921875,0.1220703125t0.087890625,0.21484375q0,0.361328125,0.0244140625,0.9521484375t0.0634765625,1.23046875t0.0732421875,1.25t0.0634765625,0.9912109375q0.76171875-0.0390625,1.533203125-0.0390625t1.5234375-0.0390625l1.34765625-0.0390625l0-0.966796875q0-1.62109375-0.0634765625-3.2470703125t-0.2197265625-3.2470703125q0-0.1171875,0.09765625-0.1904296875t0.2294921875-0.1123046875t0.2734375-0.048828125t0.2197265625-0.009765625q0.224609375,0,0.4833984375,0.068359375t0.2978515625,0.29296875l0.05859375,0.419921875q0.244140625,1.7578125,0.33203125,3.4765625t0.126953125,3.4375q0.1171875,0.01953125,0.2490234375,0.0634765625t0.2685546875,0.0830078125q0.09765625,0.0390625,0.2783203125,0.1171875t0.1806640625,0.244140625q0,0.15625-0.13671875,0.244140625t-0.3076171875,0.1318359375t-0.33203125,0.0537109375t-0.2001953125,0.009765625q0.01953125,0.72265625,0.01953125,1.4404296875l0,1.4404296875l0,3.154296875l0,1.7578125q0,0.1171875-0.1123046875,0.2099609375t-0.2685546875,0.1513671875t-0.3271484375,0.078125t-0.3076171875,0.01953125t-0.322265625-0.01953125t-0.33203125-0.078125t-0.2587890625-0.146484375t-0.1123046875-0.21484375l0-0.419921875q0.0390625-1.85546875,0.087890625-3.6767578125t0.09765625-3.6572265625q-1.064453125,0.0390625-2.1630859375,0.048828125t-2.1826171875,0.048828125q0.1171875,1.376953125,0.2685546875,2.7490234375t0.3173828125,2.7490234375q0,0.1171875-0.1123046875,0.2099609375t-0.263671875,0.1513671875t-0.322265625,0.078125t-0.3076171875,0.01953125q-0.283203125,0-0.6201171875-0.09765625t-0.3759765625-0.361328125q-0.1171875-1.03515625-0.2197265625-2.28515625t-0.1806640625-2.5537109375t-0.1220703125-2.5537109375t-0.0439453125-2.265625q0-0.244140625-0.01953125-0.5029296875z M72.1224609375,21.62109375q0-0.458984375,0.1123046875-0.6689453125t0.322265625-0.29296875t0.5078125-0.0634765625t0.6982421875,0.01953125q1.015625,0,2.05078125,0.3125t1.865234375,0.9130859375t1.337890625,1.4794921875t0.5078125,2.021484375q0,0.76171875-0.2197265625,1.4404296875t-0.6201171875,1.26953125t-0.9375,1.0791015625t-1.181640625,0.849609375q0.263671875,0.263671875,0.68359375,0.9326171875t0.830078125,1.42578125t0.7275390625,1.4697265625t0.3759765625,1.07421875l-0.1171875,0.17578125q-0.263671875,0.15625-0.634765625,0.166015625q-0.17578125,0-0.458984375-0.0439453125t-0.361328125-0.2587890625q-0.400390625-1.123046875-0.8740234375-2.314453125t-1.1669921875-2.1484375l0-0.01953125q-0.244140625,0.09765625-0.4833984375,0.1904296875t-0.4833984375,0.1708984375q0.078125,1.083984375,0.1611328125,2.1337890625t0.0830078125,2.1240234375q0,0.13671875-0.1318359375,0.2197265625t-0.2978515625,0.1318359375t-0.3369140625,0.068359375t-0.2783203125,0.01953125q-0.09765625,0-0.2783203125-0.01953125t-0.3466796875-0.068359375t-0.2880859375-0.1416015625t-0.1220703125-0.2490234375q0-1.083984375-0.048828125-2.1630859375t-0.107421875-2.1533203125q-0.302734375-0.1953125-0.302734375-0.5078125q0-0.244140625,0.234375-0.33203125q-0.1171875-2.060546875-0.2685546875-4.111328125t-0.1513671875-4.130859375z M73.8900390625,21.318359375q0.13671875,2.119140625,0.3076171875,4.189453125t0.3271484375,4.189453125q0.68359375-0.1953125,1.2744140625-0.6787109375t1.0205078125-1.0888671875t0.6689453125-1.318359375t0.2392578125-1.416015625q0-0.78125-0.3125-1.4990234375t-0.830078125-1.2548828125q-0.52734375-0.537109375-1.2109375-0.83984375q-0.60546875-0.263671875-1.26953125-0.263671875l-0.17578125,0z M81.52353515625,34.86328125q0.0390625-2.041015625,0.1708984375-4.072265625t0.2294921875-4.072265625q0.01953125-0.78125,0.01953125-1.4208984375t0.0634765625-1.1083984375t0.234375-0.7177734375t0.5712890625-0.2490234375q0.341796875,0,0.517578125,0.09765625t0.2685546875,0.2490234375t0.1123046875,0.341796875t0.01953125,0.3857421875q0,0.283203125,0.01953125,0.5615234375t0.01953125,0.5615234375q0,2.060546875-0.1123046875,4.111328125t-0.1123046875,4.130859375q0,0.302734375,0.009765625,0.6103515625t0.009765625,0.6298828125q0,0.1171875-0.107421875,0.1953125t-0.2685546875,0.1318359375t-0.341796875,0.0732421875t-0.2978515625,0.01953125q-0.13671875,0-0.3076171875-0.01953125t-0.33203125-0.0830078125t-0.2734375-0.1513671875t-0.1123046875-0.205078125z M82.07041015625,21.62109375q0-0.09765625,0.029296875-0.2197265625t0.068359375-0.2197265625q0.01953125-0.1171875,0.05859375-0.400390625t0.1416015625-0.5517578125t0.283203125-0.478515625t0.5126953125-0.2099609375l0.185546875,0q0.15625,0.0390625,0.3173828125,0.09765625t0.1611328125,0.283203125q0,0.09765625-0.009765625,0.185546875t-0.029296875,0.1953125q-0.078125,0.576171875-0.1513671875,0.908203125t-0.1708984375,0.5029296875t-0.2490234375,0.2197265625t-0.3857421875,0.068359375q-0.078125,0-0.2099609375-0.009765625t-0.25390625-0.048828125t-0.2099609375-0.1220703125t-0.087890625-0.2001953125z M85.826953125,33.14453125q0-0.341796875,0.234375-0.4345703125t0.5078125-0.0927734375q0.478515625,0,0.810546875,0.4296875t0.6298828125,0.9423828125t0.5908203125,0.9423828125t0.693359375,0.4296875q0.302734375,0,0.5517578125-0.1513671875t0.4296875-0.380859375t0.2783203125-0.517578125t0.09765625-0.5712890625q0-0.7421875-0.2978515625-1.533203125t-0.76171875-1.630859375t-0.9814453125-1.71875t-0.9765625-1.787109375t-0.76171875-1.8505859375t-0.302734375-1.8994140625q0-1.435546875,0.859375-2.2265625t2.265625-0.791015625q0.478515625,0,0.966796875,0.13671875t0.8984375,0.41015625t0.6689453125,0.673828125t0.2587890625,0.9375q0,0.17578125-0.2587890625,0.2294921875t-0.3759765625,0.0537109375q-0.17578125,0-0.380859375-0.0439453125t-0.263671875-0.2392578125t-0.166015625-0.44921875t-0.2685546875-0.4736328125t-0.380859375-0.380859375t-0.4833984375-0.1611328125q-0.439453125,0-0.7470703125,0.1806640625t-0.498046875,0.4833984375t-0.283203125,0.6787109375t-0.0927734375,0.7763671875q0,0.9375,0.322265625,1.8896484375t0.80078125,1.89453125t1.0400390625,1.8603515625t1.0400390625,1.787109375t0.80078125,1.69921875t0.322265625,1.572265625q0,0.6640625-0.3125,1.123046875t-0.791015625,0.7470703125t-1.0595703125,0.419921875t-1.1376953125,0.1318359375q-0.595703125,0-1.220703125-0.2392578125t-1.123046875-0.6591796875t-0.8203125-0.9814453125t-0.322265625-1.2158203125z M94.01708984375,21.103515625q0-0.13671875,0.1904296875-0.2099609375t0.2490234375-0.0732421875l0.361328125-0.05859375q0.361328125-0.05859375,0.732421875-0.1025390625t0.72265625-0.0830078125q1.240234375-0.15625,2.48046875-0.3076171875t2.5-0.1513671875q0.09765625,0,0.2685546875,0.009765625t0.341796875,0.0537109375t0.29296875,0.1220703125t0.1220703125,0.21484375q0,0.09765625-0.0927734375,0.1708984375t-0.2197265625,0.1123046875t-0.2587890625,0.048828125t-0.2099609375,0.009765625l-0.1708984375,0t-0.1708984375-0.0390625q-0.517578125,0-1.0205078125,0.048828125t-1.0205078125,0.087890625q0.13671875,0.15625,0.146484375,0.439453125t0.01953125,0.48828125q0,3.45703125,0.048828125,6.875t0.087890625,6.904296875l0,0.01953125q-0.322265625,0.283203125-0.5517578125,0.361328125t-0.4638671875,0.078125q-0.224609375,0-0.4541015625-0.0830078125t-0.5517578125-0.3564453125l0-0.01953125l0.078125-7.666015625q0-0.76171875-0.01953125-1.6796875t-0.01953125-1.8603515625t0.029296875-1.8212890625t0.15625-1.533203125q-0.576171875,0.05859375-1.220703125,0.17578125q-0.556640625,0.09765625-1.064453125,0.09765625l-0.17578125,0q-0.0390625,0-0.2294921875,0.009765625t-0.390625-0.009765625t-0.361328125-0.078125t-0.1611328125-0.1953125z M103.6720703125,24.16015625q0.09765625-0.458984375,0.4296875-0.927734375t0.634765625-0.888671875q0.17578125-0.263671875,0.3857421875-0.60546875t0.4296875-0.6396484375t0.4931640625-0.498046875t0.56640625-0.2001953125l0.13671875,0q0.126953125,0,0.2783203125,0.0390625t0.2783203125,0.1220703125t0.126953125,0.2392578125q0,0.1953125-0.146484375,0.439453125t-0.244140625,0.419921875q-0.517578125,0.9375-0.830078125,1.5185546875t-0.5517578125,0.9130859375t-0.458984375,0.44921875t-0.5810546875,0.1171875q-0.17578125,0-0.41015625-0.0390625t-0.390625-0.1953125q-0.13671875-0.09765625-0.146484375-0.263671875z M109.43056640625,33.14453125q0-0.341796875,0.234375-0.4345703125t0.5078125-0.0927734375q0.478515625,0,0.810546875,0.4296875t0.6298828125,0.9423828125t0.5908203125,0.9423828125t0.693359375,0.4296875q0.302734375,0,0.5517578125-0.1513671875t0.4296875-0.380859375t0.2783203125-0.517578125t0.09765625-0.5712890625q0-0.7421875-0.2978515625-1.533203125t-0.76171875-1.630859375t-0.9814453125-1.71875t-0.9765625-1.787109375t-0.76171875-1.8505859375t-0.302734375-1.8994140625q0-1.435546875,0.859375-2.2265625t2.265625-0.791015625q0.478515625,0,0.966796875,0.13671875t0.8984375,0.41015625t0.6689453125,0.673828125t0.2587890625,0.9375q0,0.17578125-0.2587890625,0.2294921875t-0.3759765625,0.0537109375q-0.17578125,0-0.380859375-0.0439453125t-0.263671875-0.2392578125t-0.166015625-0.44921875t-0.2685546875-0.4736328125t-0.380859375-0.380859375t-0.4833984375-0.1611328125q-0.439453125,0-0.7470703125,0.1806640625t-0.498046875,0.4833984375t-0.283203125,0.6787109375t-0.0927734375,0.7763671875q0,0.9375,0.322265625,1.8896484375t0.80078125,1.89453125t1.0400390625,1.8603515625t1.0400390625,1.787109375t0.80078125,1.69921875t0.322265625,1.572265625q0,0.6640625-0.3125,1.123046875t-0.791015625,0.7470703125t-1.0595703125,0.419921875t-1.1376953125,0.1318359375q-0.595703125,0-1.220703125-0.2392578125t-1.123046875-0.6591796875t-0.8203125-0.9814453125t-0.322265625-1.2158203125z M122.02177734375,21.416015625q0-0.68359375,0.234375-0.91796875t0.654296875-0.234375q0.1171875,0,0.2490234375,0.01953125t0.2490234375,0.05859375q0.654296875-0.126953125,1.240234375-0.126953125q0.947265625,0,1.71875,0.33203125q1.240234375,0.52734375,2.05078125,1.5625t1.19140625,2.431640625t0.380859375,2.861328125q0,0.8203125-0.1123046875,1.708984375t-0.4345703125,1.650390625q-0.283203125,0.68359375-0.78125,1.4306640625t-1.1279296875,1.416015625t-1.357421875,1.171875t-1.4697265625,0.6787109375l0,0.078125q0,0.1953125-0.1025390625,0.3173828125t-0.2490234375,0.185546875t-0.3369140625,0.0830078125t-0.3564453125,0.01953125q-0.09765625,0-0.2783203125-0.01953125t-0.3515625-0.0732421875t-0.2880859375-0.1416015625t-0.1171875-0.244140625q0-1.77734375-0.0927734375-3.5595703125t-0.2099609375-3.564453125t-0.2099609375-3.5595703125t-0.0927734375-3.564453125z M123.86748046875,20.91796875q0.09765625,0.9375,0.126953125,1.8701171875t0.087890625,1.8701171875q0.15625,2.421875,0.361328125,4.8193359375t0.244140625,4.8193359375q0.9375-0.615234375,1.6064453125-1.40625t1.0986328125-1.71875t0.6298828125-1.9482421875t0.2001953125-2.1044921875q0-0.78125-0.13671875-1.71875t-0.46875-1.806640625t-0.8935546875-1.572265625t-1.4013671875-1.005859375q-0.17578125-0.05859375-0.4248046875-0.09765625t-0.7958984375-0.0390625q-0.05859375,0-0.1171875,0.01953125t-0.1171875,0.01953125z M131.9794921875,34.86328125q0.0390625-2.041015625,0.1708984375-4.072265625t0.2294921875-4.072265625q0.01953125-0.78125,0.01953125-1.4208984375t0.0634765625-1.1083984375t0.234375-0.7177734375t0.5712890625-0.2490234375q0.341796875,0,0.517578125,0.09765625t0.2685546875,0.2490234375t0.1123046875,0.341796875t0.01953125,0.3857421875q0,0.283203125,0.01953125,0.5615234375t0.01953125,0.5615234375q0,2.060546875-0.1123046875,4.111328125t-0.1123046875,4.130859375q0,0.302734375,0.009765625,0.6103515625t0.009765625,0.6298828125q0,0.1171875-0.107421875,0.1953125t-0.2685546875,0.1318359375t-0.341796875,0.0732421875t-0.2978515625,0.01953125q-0.13671875,0-0.3076171875-0.01953125t-0.33203125-0.0830078125t-0.2734375-0.1513671875t-0.1123046875-0.205078125z M132.5263671875,21.62109375q0-0.09765625,0.029296875-0.2197265625t0.068359375-0.2197265625q0.01953125-0.1171875,0.05859375-0.400390625t0.1416015625-0.5517578125t0.283203125-0.478515625t0.5126953125-0.2099609375l0.185546875,0q0.15625,0.0390625,0.3173828125,0.09765625t0.1611328125,0.283203125q0,0.09765625-0.009765625,0.185546875t-0.029296875,0.1953125q-0.078125,0.576171875-0.1513671875,0.908203125t-0.1708984375,0.5029296875t-0.2490234375,0.2197265625t-0.3857421875,0.068359375q-0.078125,0-0.2099609375-0.009765625t-0.25390625-0.048828125t-0.2099609375-0.1220703125t-0.087890625-0.2001953125z M136.28291015625,33.14453125q0-0.341796875,0.234375-0.4345703125t0.5078125-0.0927734375q0.478515625,0,0.810546875,0.4296875t0.6298828125,0.9423828125t0.5908203125,0.9423828125t0.693359375,0.4296875q0.302734375,0,0.5517578125-0.1513671875t0.4296875-0.380859375t0.2783203125-0.517578125t0.09765625-0.5712890625q0-0.7421875-0.2978515625-1.533203125t-0.76171875-1.630859375t-0.9814453125-1.71875t-0.9765625-1.787109375t-0.76171875-1.8505859375t-0.302734375-1.8994140625q0-1.435546875,0.859375-2.2265625t2.265625-0.791015625q0.478515625,0,0.966796875,0.13671875t0.8984375,0.41015625t0.6689453125,0.673828125t0.2587890625,0.9375q0,0.17578125-0.2587890625,0.2294921875t-0.3759765625,0.0537109375q-0.17578125,0-0.380859375-0.0439453125t-0.263671875-0.2392578125t-0.166015625-0.44921875t-0.2685546875-0.4736328125t-0.380859375-0.380859375t-0.4833984375-0.1611328125q-0.439453125,0-0.7470703125,0.1806640625t-0.498046875,0.4833984375t-0.283203125,0.6787109375t-0.0927734375,0.7763671875q0,0.9375,0.322265625,1.8896484375t0.80078125,1.89453125t1.0400390625,1.8603515625t1.0400390625,1.787109375t0.80078125,1.69921875t0.322265625,1.572265625q0,0.6640625-0.3125,1.123046875t-0.791015625,0.7470703125t-1.0595703125,0.419921875t-1.1376953125,0.1318359375q-0.595703125,0-1.220703125-0.2392578125t-1.123046875-0.6591796875t-0.8203125-0.9814453125t-0.322265625-1.2158203125z M145.06875,31.884765625q0-2.119140625,0.1904296875-4.2431640625t0.7958984375-4.1845703125q0.17578125-0.615234375,0.458984375-1.2158203125t0.693359375-1.0693359375t0.9765625-0.76171875t1.34765625-0.29296875l0.205078125,0.01953125q0.83984375,0.1171875,1.240234375,0.6787109375t0.400390625,1.4013671875q0,0.224609375-0.0537109375,0.5615234375t-0.1708984375,0.6494140625t-0.3173828125,0.5322265625t-0.5029296875,0.2197265625q-0.13671875-0.01953125-0.2490234375-0.048828125t-0.2099609375-0.126953125q0.15625-0.341796875,0.2783203125-0.712890625t0.1220703125-0.849609375q0-0.17578125-0.029296875-0.44921875t-0.1123046875-0.5419921875t-0.2197265625-0.46875t-0.380859375-0.2001953125q-0.615234375,0-1.03515625,0.6884765625t-0.703125,1.7578125t-0.419921875,2.36328125t-0.2099609375,2.5t-0.0830078125,2.177734375t-0.009765625,1.3720703125q0,0.46875-0.009765625,1.03515625l0,0.126953125q0.009765625,0.498046875,0.068359375,0.947265625q0.078125,0.5078125,0.302734375,0.87890625t0.703125,0.4296875q0.146484375,0.01953125,0.283203125,0.01953125q0.56640625,0,1.025390625-0.322265625q0.56640625-0.400390625,1.005859375-1.0400390625t0.78125-1.40625t0.6298828125-1.4501953125t0.5615234375-1.1328125t0.56640625-0.44921875q0.09765625,0,0.29296875,0.0390625t0.1953125,0.185546875q0,0.0390625-0.01953125,0.107421875t-0.048828125,0.107421875q-0.263671875,1.03515625-0.6689453125,2.1484375t-1.03515625,2.0263671875t-1.54296875,1.4892578125t-2.1923828125,0.576171875q-0.91796875,0-1.4892578125-0.3466796875t-0.87890625-0.927734375t-0.419921875-1.3134765625t-0.1123046875-1.484375z M155.47568359375,34.86328125q0.0390625-2.041015625,0.1708984375-4.072265625t0.2294921875-4.072265625q0.01953125-0.78125,0.01953125-1.4208984375t0.0634765625-1.1083984375t0.234375-0.7177734375t0.5712890625-0.2490234375q0.341796875,0,0.517578125,0.09765625t0.2685546875,0.2490234375t0.1123046875,0.341796875t0.01953125,0.3857421875q0,0.283203125,0.01953125,0.5615234375t0.01953125,0.5615234375q0,2.060546875-0.1123046875,4.111328125t-0.1123046875,4.130859375q0,0.302734375,0.009765625,0.6103515625t0.009765625,0.6298828125q0,0.1171875-0.107421875,0.1953125t-0.2685546875,0.1318359375t-0.341796875,0.0732421875t-0.2978515625,0.01953125q-0.13671875,0-0.3076171875-0.01953125t-0.33203125-0.0830078125t-0.2734375-0.1513671875t-0.1123046875-0.205078125z M156.02255859375,21.62109375q0-0.09765625,0.029296875-0.2197265625t0.068359375-0.2197265625q0.01953125-0.1171875,0.05859375-0.400390625t0.1416015625-0.5517578125t0.283203125-0.478515625t0.5126953125-0.2099609375l0.185546875,0q0.15625,0.0390625,0.3173828125,0.09765625t0.1611328125,0.283203125q0,0.09765625-0.009765625,0.185546875t-0.029296875,0.1953125q-0.078125,0.576171875-0.1513671875,0.908203125t-0.1708984375,0.5029296875t-0.2490234375,0.2197265625t-0.3857421875,0.068359375q-0.078125,0-0.2099609375-0.009765625t-0.25390625-0.048828125t-0.2099609375-0.1220703125t-0.087890625-0.2001953125z M159.7791015625,22.6171875q0-0.458984375,0.0244140625-0.908203125t0.0830078125-0.888671875q0.0390625-0.224609375,0.3466796875-0.322265625t0.5126953125-0.09765625l0.234375,0.01953125q0.283203125,0.0390625,0.5712890625-0.0390625t0.5712890625-0.078125q0.6640625,0,1.484375,0.146484375t1.5380859375,0.498046875t1.2060546875,0.9228515625t0.48828125,1.4111328125t-0.5078125,1.5673828125t-1.279296875,1.279296875t-1.66015625,0.8642578125t-1.630859375,0.3125q0.078125,1.884765625,0.2197265625,3.740234375t0.4833984375,3.7109375l0.01953125,0.126953125q0,0.13671875-0.1220703125,0.224609375t-0.2880859375,0.1416015625t-0.3369140625,0.0732421875t-0.2783203125,0.01953125q-0.244140625,0-0.5908203125-0.0927734375t-0.4248046875-0.3662109375q-0.224609375-0.859375-0.3515625-1.8896484375t-0.185546875-2.1533203125t-0.0830078125-2.2607421875t-0.0244140625-2.2216796875l0-2.197265625q0-0.361328125-0.009765625-0.751953125t-0.009765625-0.791015625z M161.6248046875,21.03515625q0,1.337890625,0.029296875,2.6708984375t0.068359375,2.6708984375q0.576171875-0.1171875,1.1767578125-0.4150390625t1.083984375-0.7080078125t0.78125-0.9326171875t0.2978515625-1.0986328125q0-0.517578125-0.2587890625-0.927734375t-0.6689453125-0.703125q-0.400390625-0.283203125-0.908203125-0.439453125q-0.44921875-0.13671875-0.87890625-0.13671875l-0.107421875,0z M168.85791015625,29.98046875l0-1.54296875q0-1.6015625,0.0537109375-3.1787109375t0.0927734375-3.1787109375q0-0.302734375-0.01953125-0.673828125q-0.009765625-0.107421875-0.009765625-0.205078125q0-0.244140625,0.0390625-0.478515625q0.048828125-0.3125,0.2392578125-0.537109375t0.6298828125-0.224609375q0.361328125,0,0.5517578125,0.078125t0.2685546875,0.2294921875t0.087890625,0.380859375t0.009765625,0.5322265625q0,1.62109375-0.0390625,3.251953125q-0.029296875,1.083984375-0.029296875,2.16796875q0,0.546875,0.009765625,1.09375q0.01953125,1.62109375,0.1513671875,3.2421875t0.4443359375,3.203125q0.9765625-0.0390625,1.953125-0.09765625t1.953125-0.05859375q0.09765625,0,0.2783203125,0.01953125t0.361328125,0.068359375t0.3076171875,0.126953125t0.126953125,0.224609375q0,0.09765625-0.087890625,0.166015625t-0.166015625,0.107421875l-0.01953125,0q-0.15625,0.078125-0.6201171875,0.1513671875t-1.0546875,0.1123046875t-1.240234375,0.068359375t-1.220703125,0.048828125t-0.9912109375,0.029296875t-0.517578125,0.009765625l-0.087890625,0q-0.234375,0-0.52734375-0.078125q-0.3515625-0.09765625-0.439453125-0.380859375q-0.17578125-0.72265625-0.2783203125-1.4990234375t-0.15625-1.5771484375t-0.0537109375-1.6015625z M177.721875,33.9453125q0.01953125-0.41015625,0.01953125-0.80078125q0-1.416015625,0.1025390625-2.822265625t0.1416015625-2.822265625q0.05859375-1.62109375,0.107421875-3.212890625t0.1953125-3.203125q0.0390625-0.400390625,0.2294921875-0.5224609375t0.5712890625-0.1220703125q0.17578125,0,0.46875,0.068359375t0.29296875,0.33203125q0.13671875,0.01953125,0.2734375,0.01953125q0.205078125,0,0.419921875-0.0390625q0.3515625-0.05859375,0.7177734375-0.1318359375t0.7275390625-0.1416015625t0.693359375-0.068359375q0.078125,0,0.2197265625,0.009765625t0.283203125,0.05859375t0.2392578125,0.1220703125t0.09765625,0.1904296875t-0.2294921875,0.2099609375t-0.6005859375,0.1611328125t-0.80078125,0.1171875t-0.83984375,0.0830078125t-0.7275390625,0.0537109375t-0.4541015625,0.01953125l-0.01953125,3.671875l0.01953125,1.826171875q0.302734375,0,0.908203125-0.01953125q0.244140625-0.009765625,0.48828125-0.009765625q0.37109375,0,0.76171875,0.01953125q0.64453125,0.029296875,1.162109375,0.1171875t0.654296875,0.3125q0,0.13671875-0.1416015625,0.2197265625t-0.3173828125,0.1220703125t-0.3564453125,0.048828125t-0.2587890625,0.009765625q-0.72265625,0-1.455078125-0.029296875t-1.4453125-0.1171875q0,1.201171875-0.0634765625,2.3828125t-0.0634765625,2.3828125q0,0.517578125,0.009765625,1.0205078125t0.1171875,1.0009765625q0.263671875-0.01953125,0.5712890625-0.048828125t0.625-0.0732421875t0.6103515625-0.0732421875t0.5078125-0.029296875q0.1171875,0,0.3173828125,0.029296875t0.41015625,0.09765625t0.361328125,0.1708984375t0.1513671875,0.2392578125q0,0.15625-0.2880859375,0.2783203125t-0.7373046875,0.1953125t-0.9814453125,0.1025390625t-1.0302734375,0.0390625t-0.8984375,0.009765625l-0.56640625,0q-0.537109375,0-0.7861328125-0.2001953125t-0.3466796875-0.5224609375q-0.078125-0.263671875-0.068359375-0.595703125l0-0.13671875z M185.84365234375,33.14453125q0-0.341796875,0.234375-0.4345703125t0.5078125-0.0927734375q0.478515625,0,0.810546875,0.4296875t0.6298828125,0.9423828125t0.5908203125,0.9423828125t0.693359375,0.4296875q0.302734375,0,0.5517578125-0.1513671875t0.4296875-0.380859375t0.2783203125-0.517578125t0.09765625-0.5712890625q0-0.7421875-0.2978515625-1.533203125t-0.76171875-1.630859375t-0.9814453125-1.71875t-0.9765625-1.787109375t-0.76171875-1.8505859375t-0.302734375-1.8994140625q0-1.435546875,0.859375-2.2265625t2.265625-0.791015625q0.478515625,0,0.966796875,0.13671875t0.8984375,0.41015625t0.6689453125,0.673828125t0.2587890625,0.9375q0,0.17578125-0.2587890625,0.2294921875t-0.3759765625,0.0537109375q-0.17578125,0-0.380859375-0.0439453125t-0.263671875-0.2392578125t-0.166015625-0.44921875t-0.2685546875-0.4736328125t-0.380859375-0.380859375t-0.4833984375-0.1611328125q-0.439453125,0-0.7470703125,0.1806640625t-0.498046875,0.4833984375t-0.283203125,0.6787109375t-0.0927734375,0.7763671875q0,0.9375,0.322265625,1.8896484375t0.80078125,1.89453125t1.0400390625,1.8603515625t1.0400390625,1.787109375t0.80078125,1.69921875t0.322265625,1.572265625q0,0.6640625-0.3125,1.123046875t-0.791015625,0.7470703125t-1.0595703125,0.419921875t-1.1376953125,0.1318359375q-0.595703125,0-1.220703125-0.2392578125t-1.123046875-0.6591796875t-0.8203125-0.9814453125t-0.322265625-1.2158203125z M198.45439453125,33.41796875q-0.009765625-0.29296875-0.009765625-0.5859375q0-0.91796875,0.09765625-1.845703125q0.1171875-1.23046875,0.15625-2.421875q0.0390625-1.396484375,0.1171875-2.900390625q0.048828125-0.8203125,0.048828125-1.62109375q0-0.654296875-0.029296875-1.298828125q0.09765625-0.224609375,0.2587890625-0.302734375t0.4052734375-0.078125q0.1171875,0,0.2490234375,0.01953125t0.2294921875,0.09765625q0.13671875,0.01953125,0.3369140625,0.0390625t0.3076171875,0.1171875q0.0390625,0.05859375,0.2001953125,0.400390625t0.380859375,0.830078125t0.458984375,1.0595703125t0.458984375,1.083984375t0.380859375,0.9033203125t0.2001953125,0.48828125q0.91796875-1.66015625,1.796875-3.4130859375t1.923828125-3.3056640625q0.09765625-0.13671875,0.3369140625-0.2001953125t0.3955078125-0.0634765625q0.419921875,0,0.6103515625,0.2001953125t0.2490234375,0.5126953125q0.0390625,0.1953125,0.048828125,0.419921875q0.009765625,0.1171875-0.009765625,0.244140625q-0.0390625,0.361328125-0.0390625,0.68359375q0,2.275390625-0.15625,4.5166015625t-0.283203125,4.5263671875q-0.01953125,0.46875-0.01953125,0.9765625t0.01953125,1.0546875q0.009765625,0.1953125,0.009765625,0.380859375q0,0.859375-0.146484375,1.6015625q-0.13671875,0.224609375-0.44921875,0.283203125t-0.52734375,0.05859375q-0.458984375,0-0.87890625-0.21484375l-0.107421875-0.126953125l-0.0390625-0.15625t-0.01953125-0.15625q0-1.416015625,0.1025390625-2.8515625t0.2294921875-2.8662109375t0.2685546875-2.8564453125t0.2392578125-2.8515625q-0.576171875,0.95703125-1.1181640625,1.9482421875t-1.0205078125,2.0166015625q-0.17578125,0.400390625-0.3369140625,0.859375t-0.3857421875,0.8203125q-0.1171875,0.17578125-0.3955078125,0.21484375t-0.4833984375,0.0390625q-0.1953125,0-0.4052734375-0.068359375t-0.2880859375-0.29296875q-0.361328125-1.103515625-0.771484375-2.158203125t-0.830078125-2.138671875q0,0.72265625,0.029296875,1.8701171875t0.029296875,2.3779296875t-0.0390625,2.353515625t-0.185546875,1.77734375q-0.0390625,0.244140625-0.3173828125,0.302734375t-0.4833984375,0.05859375q-0.15625,0-0.2978515625-0.01953125t-0.2783203125-0.078125z M210.052734375,28.095703125q0-0.576171875,0.0634765625-1.396484375t0.234375-1.708984375t0.458984375-1.767578125t0.7373046875-1.552734375t1.07421875-1.064453125q0.517578125-0.322265625,1.19140625-0.322265625q0.13671875,0,0.283203125,0.01953125q1.69921875,0.15625,2.6123046875,0.7763671875t1.3330078125,1.572265625t0.48828125,2.16796875t0.068359375,2.5634765625q0,1.083984375-0.2001953125,2.3583984375t-0.7080078125,2.3779296875t-1.4013671875,1.8408203125t-2.2705078125,0.7373046875q-0.83984375,0-1.4697265625-0.3076171875t-1.0693359375-0.8203125t-0.72265625-1.19140625t-0.4296875-1.40625t-0.2099609375-1.4697265625t-0.0634765625-1.40625z M212.03515625,27.65625q0,0.419921875,0.009765625,1.0302734375t0.0830078125,1.2841796875t0.1904296875,1.3427734375t0.3466796875,1.2158203125t0.5810546875,0.8984375t0.849609375,0.37109375l0.048828125,0q0.44921875,0,0.80078125-0.341796875q0.37109375-0.361328125,0.6591796875-0.869140625t0.498046875-1.0693359375t0.3759765625-0.9619140625l-0.0390625,0.087890625q0.283203125-0.8984375,0.380859375-1.8408203125t0.09765625-1.8603515625q0-0.439453125-0.05859375-1.0595703125t-0.1904296875-1.2939453125t-0.341796875-1.3330078125t-0.5322265625-1.1474609375t-0.751953125-0.7421875q-0.3125-0.185546875-0.693359375-0.1953125q-0.146484375,0-0.29296875,0.029296875q-0.498046875,0.09765625-0.849609375,0.48828125t-0.5712890625,0.9619140625t-0.3369140625,1.25t-0.1806640625,1.3671875t-0.0732421875,1.318359375t-0.009765625,1.0693359375z M216.439453125,30.6640625l0-0.01953125l0,0.01953125z M220.61591796875,21.376953125q0-0.15625,0.1123046875-0.2587890625t0.263671875-0.1611328125t0.33203125-0.078125t0.3173828125-0.01953125q0.283203125,0,0.6005859375,0.078125t0.4736328125,0.341796875q0.283203125,0.478515625,0.4150390625,1.1376953125t0.2490234375,1.2646484375q0.17578125,0.83984375,0.44921875,1.7578125t0.5712890625,1.8701171875t0.6103515625,1.8701171875t0.546875,1.71875q0.283203125-1.181640625,0.5224609375-2.421875t0.458984375-2.48046875t0.458984375-2.48046875t0.5224609375-2.431640625q0.05859375-0.283203125,0.087890625-0.712890625t0.1220703125-0.830078125t0.2685546875-0.6884765625t0.537109375-0.2880859375q0.380859375,0,0.5126953125,0.2099609375t0.1318359375,0.6103515625q-0.09765625,1.103515625-0.3173828125,2.1875t-0.4052734375,2.16796875q-0.263671875,1.337890625-0.5712890625,2.6806640625t-0.576171875,2.6904296875t-0.458984375,2.7001953125t-0.2294921875,2.7099609375q0.01953125,0.05859375,0.05859375,0.13671875t0.0390625,0.1171875q0,0.1171875-0.107421875,0.2197265625t-0.2685546875,0.17578125t-0.3515625,0.1123046875t-0.3564453125,0.0390625q-0.15625,0-0.3564453125-0.01953125t-0.400390625-0.0732421875t-0.3515625-0.1416015625t-0.1904296875-0.224609375q-0.15625-0.458984375-0.2880859375-0.8935546875t-0.2490234375-0.8935546875q-0.556640625-2.001953125-1.1669921875-3.9306640625t-1.1279296875-3.9208984375q-0.244140625-0.8984375-0.3662109375-1.7626953125t-0.3955078125-1.7041015625q0.0390625,0.078125,0.0390625,0.126953125q-0.0390625-0.13671875-0.078125-0.2587890625t-0.087890625-0.2685546875q0,0.0390625,0.009765625,0.048828125t0.009765625,0.029296875q0-0.01953125-0.009765625-0.029296875t-0.009765625-0.029296875z M231.1791015625,33.9453125q0.01953125-0.41015625,0.01953125-0.80078125q0-1.416015625,0.1025390625-2.822265625t0.1416015625-2.822265625q0.05859375-1.62109375,0.107421875-3.212890625t0.1953125-3.203125q0.0390625-0.400390625,0.2294921875-0.5224609375t0.5712890625-0.1220703125q0.17578125,0,0.46875,0.068359375t0.29296875,0.33203125q0.13671875,0.01953125,0.2734375,0.01953125q0.205078125,0,0.419921875-0.0390625q0.3515625-0.05859375,0.7177734375-0.1318359375t0.7275390625-0.1416015625t0.693359375-0.068359375q0.078125,0,0.2197265625,0.009765625t0.283203125,0.05859375t0.2392578125,0.1220703125t0.09765625,0.1904296875t-0.2294921875,0.2099609375t-0.6005859375,0.1611328125t-0.80078125,0.1171875t-0.83984375,0.0830078125t-0.7275390625,0.0537109375t-0.4541015625,0.01953125l-0.01953125,3.671875l0.01953125,1.826171875q0.302734375,0,0.908203125-0.01953125q0.244140625-0.009765625,0.48828125-0.009765625q0.37109375,0,0.76171875,0.01953125q0.64453125,0.029296875,1.162109375,0.1171875t0.654296875,0.3125q0,0.13671875-0.1416015625,0.2197265625t-0.3173828125,0.1220703125t-0.3564453125,0.048828125t-0.2587890625,0.009765625q-0.72265625,0-1.455078125-0.029296875t-1.4453125-0.1171875q0,1.201171875-0.0634765625,2.3828125t-0.0634765625,2.3828125q0,0.517578125,0.009765625,1.0205078125t0.1171875,1.0009765625q0.263671875-0.01953125,0.5712890625-0.048828125t0.625-0.0732421875t0.6103515625-0.0732421875t0.5078125-0.029296875q0.1171875,0,0.3173828125,0.029296875t0.41015625,0.09765625t0.361328125,0.1708984375t0.1513671875,0.2392578125q0,0.15625-0.2880859375,0.2783203125t-0.7373046875,0.1953125t-0.9814453125,0.1025390625t-1.0302734375,0.0390625t-0.8984375,0.009765625l-0.56640625,0q-0.537109375,0-0.7861328125-0.2001953125t-0.3466796875-0.5224609375q-0.078125-0.263671875-0.068359375-0.595703125l0-0.13671875z M239.32041015625,33.41796875q-0.009765625-0.29296875-0.009765625-0.5859375q0-0.91796875,0.09765625-1.845703125q0.1171875-1.23046875,0.15625-2.421875q0.0390625-1.396484375,0.1171875-2.900390625q0.048828125-0.8203125,0.048828125-1.62109375q0-0.654296875-0.029296875-1.298828125q0.09765625-0.224609375,0.2587890625-0.302734375t0.4052734375-0.078125q0.1171875,0,0.2490234375,0.01953125t0.2294921875,0.09765625q0.13671875,0.01953125,0.3369140625,0.0390625t0.3076171875,0.1171875q0.0390625,0.05859375,0.2001953125,0.400390625t0.380859375,0.830078125t0.458984375,1.0595703125t0.458984375,1.083984375t0.380859375,0.9033203125t0.2001953125,0.48828125q0.91796875-1.66015625,1.796875-3.4130859375t1.923828125-3.3056640625q0.09765625-0.13671875,0.3369140625-0.2001953125t0.3955078125-0.0634765625q0.419921875,0,0.6103515625,0.2001953125t0.2490234375,0.5126953125q0.0390625,0.1953125,0.048828125,0.419921875q0.009765625,0.1171875-0.009765625,0.244140625q-0.0390625,0.361328125-0.0390625,0.68359375q0,2.275390625-0.15625,4.5166015625t-0.283203125,4.5263671875q-0.01953125,0.46875-0.01953125,0.9765625t0.01953125,1.0546875q0.009765625,0.1953125,0.009765625,0.380859375q0,0.859375-0.146484375,1.6015625q-0.13671875,0.224609375-0.44921875,0.283203125t-0.52734375,0.05859375q-0.458984375,0-0.87890625-0.21484375l-0.107421875-0.126953125l-0.0390625-0.15625t-0.01953125-0.15625q0-1.416015625,0.1025390625-2.8515625t0.2294921875-2.8662109375t0.2685546875-2.8564453125t0.2392578125-2.8515625q-0.576171875,0.95703125-1.1181640625,1.9482421875t-1.0205078125,2.0166015625q-0.17578125,0.400390625-0.3369140625,0.859375t-0.3857421875,0.8203125q-0.1171875,0.17578125-0.3955078125,0.21484375t-0.4833984375,0.0390625q-0.1953125,0-0.4052734375-0.068359375t-0.2880859375-0.29296875q-0.361328125-1.103515625-0.771484375-2.158203125t-0.830078125-2.138671875q0,0.72265625,0.029296875,1.8701171875t0.029296875,2.3779296875t-0.0390625,2.353515625t-0.185546875,1.77734375q-0.0390625,0.244140625-0.3173828125,0.302734375t-0.4833984375,0.05859375q-0.15625,0-0.2978515625-0.01953125t-0.2783203125-0.078125z M250.91875,33.9453125q0.01953125-0.41015625,0.01953125-0.80078125q0-1.416015625,0.1025390625-2.822265625t0.1416015625-2.822265625q0.05859375-1.62109375,0.107421875-3.212890625t0.1953125-3.203125q0.0390625-0.400390625,0.2294921875-0.5224609375t0.5712890625-0.1220703125q0.17578125,0,0.46875,0.068359375t0.29296875,0.33203125q0.13671875,0.01953125,0.2734375,0.01953125q0.205078125,0,0.419921875-0.0390625q0.3515625-0.05859375,0.7177734375-0.1318359375t0.7275390625-0.1416015625t0.693359375-0.068359375q0.078125,0,0.2197265625,0.009765625t0.283203125,0.05859375t0.2392578125,0.1220703125t0.09765625,0.1904296875t-0.2294921875,0.2099609375t-0.6005859375,0.1611328125t-0.80078125,0.1171875t-0.83984375,0.0830078125t-0.7275390625,0.0537109375t-0.4541015625,0.01953125l-0.01953125,3.671875l0.01953125,1.826171875q0.302734375,0,0.908203125-0.01953125q0.244140625-0.009765625,0.48828125-0.009765625q0.37109375,0,0.76171875,0.01953125q0.64453125,0.029296875,1.162109375,0.1171875t0.654296875,0.3125q0,0.13671875-0.1416015625,0.2197265625t-0.3173828125,0.1220703125t-0.3564453125,0.048828125t-0.2587890625,0.009765625q-0.72265625,0-1.455078125-0.029296875t-1.4453125-0.1171875q0,1.201171875-0.0634765625,2.3828125t-0.0634765625,2.3828125q0,0.517578125,0.009765625,1.0205078125t0.1171875,1.0009765625q0.263671875-0.01953125,0.5712890625-0.048828125t0.625-0.0732421875t0.6103515625-0.0732421875t0.5078125-0.029296875q0.1171875,0,0.3173828125,0.029296875t0.41015625,0.09765625t0.361328125,0.1708984375t0.1513671875,0.2392578125q0,0.15625-0.2880859375,0.2783203125t-0.7373046875,0.1953125t-0.9814453125,0.1025390625t-1.0302734375,0.0390625t-0.8984375,0.009765625l-0.56640625,0q-0.537109375,0-0.7861328125-0.2001953125t-0.3466796875-0.5224609375q-0.078125-0.263671875-0.068359375-0.595703125l0-0.13671875z M259.04052734375,22.216796875q0-0.1171875,0.1123046875-0.17578125t0.244140625-0.087890625t0.2392578125-0.029296875l0.107421875,0q0.341796875,0,0.4931640625,0.15625t0.3662109375,0.400390625q1.46484375,2.119140625,2.685546875,4.3603515625t2.353515625,4.5361328125q0.09765625-2.67578125,0.2001953125-5.3857421875t0.2587890625-5.3759765625q0-0.1171875,0.1123046875-0.1953125t0.25390625-0.1171875t0.2880859375-0.048828125t0.224609375-0.009765625q0.1171875,0,0.2587890625,0.009765625t0.283203125,0.05859375t0.234375,0.1171875t0.0927734375,0.185546875q0.0390625,0.419921875,0.0439453125,0.8447265625t0.0048828125,0.8447265625q0,3.14453125-0.13671875,6.162109375t-0.13671875,6.09375l0,0.703125q0,0.0390625-0.0390625,0.1171875q0.01953125,0.078125,0.05859375,0.1708984375t0.0390625,0.1318359375q0,0.15625-0.1611328125,0.234375t-0.3515625,0.1220703125t-0.3369140625,0.0439453125t-0.107421875,0q-0.498046875,0-0.83984375-0.2734375t-0.341796875-0.654296875q-0.72265625-1.62109375-1.4404296875-3.2177734375t-1.4990234375-3.1787109375q-0.498046875-0.99609375-1.0009765625-1.9970703125t-1.0791015625-1.9384765625q0.01953125,0.01953125,0.01953125,0.05859375q0.09765625,0.9765625,0.2099609375,1.9482421875t0.1708984375,1.9482421875q0.0390625,0.83984375,0.087890625,1.69921875t0.15625,1.69921875q0,0.322265625-0.2001953125,0.41015625t-0.4638671875,0.087890625q-0.224609375,0-0.4248046875-0.05859375t-0.2392578125-0.29296875q0-0.8984375-0.068359375-1.9091796875t-0.126953125-2.0361328125q-0.09765625-1.357421875-0.2587890625-2.7587890625t-0.1611328125-2.7392578125q0-0.05859375,0.009765625-0.1220703125t0.009765625-0.1416015625q-0.05859375-0.09765625-0.1318359375-0.205078125t-0.0732421875-0.1953125z M269.2912109375,21.103515625q0-0.13671875,0.1904296875-0.2099609375t0.2490234375-0.0732421875l0.361328125-0.05859375q0.361328125-0.05859375,0.732421875-0.1025390625t0.72265625-0.0830078125q1.240234375-0.15625,2.48046875-0.3076171875t2.5-0.1513671875q0.09765625,0,0.2685546875,0.009765625t0.341796875,0.0537109375t0.29296875,0.1220703125t0.1220703125,0.21484375q0,0.09765625-0.0927734375,0.1708984375t-0.2197265625,0.1123046875t-0.2587890625,0.048828125t-0.2099609375,0.009765625l-0.1708984375,0t-0.1708984375-0.0390625q-0.517578125,0-1.0205078125,0.048828125t-1.0205078125,0.087890625q0.13671875,0.15625,0.146484375,0.439453125t0.01953125,0.48828125q0,3.45703125,0.048828125,6.875t0.087890625,6.904296875l0,0.01953125q-0.322265625,0.283203125-0.5517578125,0.361328125t-0.4638671875,0.078125q-0.224609375,0-0.4541015625-0.0830078125t-0.5517578125-0.3564453125l0-0.01953125l0.078125-7.666015625q0-0.76171875-0.01953125-1.6796875t-0.01953125-1.8603515625t0.029296875-1.8212890625t0.15625-1.533203125q-0.576171875,0.05859375-1.220703125,0.17578125q-0.556640625,0.09765625-1.064453125,0.09765625l-0.17578125,0q-0.0390625,0-0.2294921875,0.009765625t-0.390625-0.009765625t-0.361328125-0.078125t-0.1611328125-0.1953125z"/><path fill="#" d=""/></svg>
